<svg xmlns="http://www.w3.org/2000/svg" viewBox="0 0 900 560"><rect width="900" height="560" fill="#edf2f6"/><rect y="440" width="900" height="120" fill="#c7d1da"/><g transform="translate(90 60)"><rect width="720" height="380" rx="18" fill="#d7e0e6" stroke="#9faebb" stroke-width="4"/><rect x="35" y="35" width="300" height="135" rx="10" fill="#102a47"/><text x="185" y="90" text-anchor="middle" fill="#fff" font-family="Arial" font-size="34" font-weight="700">ATS</text><text x="185" y="130" text-anchor="middle" fill="#b9d7f1" font-family="Arial" font-size="18">AUTOMATIC TRANSFER SWITCH</text><g transform="translate(385 44)"><circle cx="35" cy="35" r="12" fill="#16bd74"/><circle cx="80" cy="35" r="12" fill="#efb327"/><circle cx="125" cy="35" r="12" fill="#df1b38"/><rect y="88" width="165" height="68" rx="7" fill="#1a3e5e"/><text x="82" y="130" text-anchor="middle" fill="#fff" font-family="Arial" font-size="18">AUTO / MANUAL</text></g><path d="M65 225h590M65 285h590M65 345h590" stroke="#9caab5" stroke-width="5"/><g fill="#183c60"><rect x="80" y="205" width="120" height="45" rx="5"/><rect x="250" y="205" width="120" height="45" rx="5"/><rect x="420" y="205" width="120" height="45" rx="5"/><rect x="590" y="205" width="75" height="45" rx="5"/></g><text x="360" y="420" text-anchor="middle" fill="#071f4d" font-family="Arial" font-size="27" font-weight="700">ATS · TRANSFER LOGIC · CONTROL &amp; TESTING</text></g></svg>