<svg xmlns="http://www.w3.org/2000/svg" viewBox="0 0 900 560"><rect width="900" height="560" fill="#edf2f6"/><rect y="430" width="900" height="130" fill="#c8d1da"/><g transform="translate(145 55)"><rect x="20" y="110" width="300" height="250" rx="18" fill="#173957"/><path d="M75 170h190M75 220h190M75 270h130" stroke="#7190a8" stroke-width="10"/><circle cx="270" cy="310" r="14" fill="#d91c36"/><g transform="translate(365 40)"><path d="M115 0l32 78 84 7-64 55 20 82-72-43-72 43 20-82-64-55 84-7z" fill="#d91c36" opacity=".16"/><path d="M120 48l-48 95h42l-20 90 82-115h-44l30-70z" fill="#d91c36"/><path d="M190 250c45-46 96-49 126-15" fill="none" stroke="#0b2c55" stroke-width="15"/><circle cx="322" cy="238" r="35" fill="#0b2c55"/><path d="M292 238h60" stroke="#fff" stroke-width="12"/></g></g><text x="450" y="500" text-anchor="middle" fill="#071f4d" font-family="Arial" font-size="28" font-weight="700">CORRECTIVE / EMERGENCY MAINTENANCE</text><text x="450" y="535" text-anchor="middle" fill="#53677a" font-family="Arial" font-size="19">Fault Isolation · Emergency Response · Repair · Restoration</text></svg>